HIERARCHY
ROOT hip
{
	OFFSET 0.000000 0.000000 0.000000 
	CHANNELS 6 Xposition Yposition Zposition Xrotation Zrotation Yrotation
	JOINT abdomen
	{
		OFFSET 0.000000 3.402643 0.000000 
		CHANNELS 3 Xrotation Zrotation Yrotation
		JOINT chest
		{
			OFFSET 0.000000 8.438565 -0.680529 
			CHANNELS 3 Xrotation Zrotation Yrotation
			JOINT neck
			{
				OFFSET 0.000000 10.207942 -0.272212 
				CHANNELS 3 Xrotation Zrotation Yrotation
				JOINT head
				{
					OFFSET 0.000000 3.130431 0.000000 
					CHANNELS 3 Xrotation Zrotation Yrotation
					End Site
					{
						OFFSET 0.000000 3.130435 0.000000 
					}
				}
			}
			JOINT lCollar
			{
				OFFSET 3.470700 6.669187 -0.816635 
				CHANNELS 3 Yrotation Zrotation Xrotation
				JOINT lShldr
				{
					OFFSET 3.198488 0.000000 0.000000 
					CHANNELS 3 Zrotation Yrotation Xrotation
					JOINT lForeArm
					{
						OFFSET 10.139888 0.000000 0.000000 
						CHANNELS 3 Yrotation Zrotation Xrotation
						JOINT lHand
						{
							OFFSET 8.370511 0.000000 0.000000 
							CHANNELS 3 Zrotation Yrotation Xrotation
							End Site
							{
								OFFSET 4.083176 0.000000 0.000000 
							}
						}
					}
				}
			}
			JOINT rCollar
			{
				OFFSET -3.470700 6.669187 -0.816635 
				CHANNELS 3 Yrotation Zrotation Xrotation
				JOINT rShldr
				{
					OFFSET -3.198488 0.000000 0.000000 
					CHANNELS 3 Zrotation Yrotation Xrotation
					JOINT rForeArm
					{
						OFFSET -10.139888 0.000000 0.000000 
						CHANNELS 3 Yrotation Zrotation Xrotation
						JOINT rHand
						{
							OFFSET -8.370511 0.000000 0.000000 
							CHANNELS 3 Zrotation Yrotation Xrotation
							End Site
							{
								OFFSET -4.083176 0.000000 0.000000 
							}
						}
					}
				}
			}
		}
	}
	JOINT lThigh
	{
		OFFSET 5.308129 -1.633274 1.361059 
		CHANNELS 3 Xrotation Zrotation Yrotation
		JOINT lShin
		{
			OFFSET -2.041588 -20.007561 0.000000 
			CHANNELS 3 Xrotation Zrotation Yrotation
			JOINT lFoot
			{
				OFFSET 0.000000 -19.190928 -1.224953 
				CHANNELS 3 Xrotation Yrotation Zrotation
				End Site
				{
					OFFSET 0.000000 -2.449906 4.627600 
				}
			}
		}
	}
	JOINT rThigh
	{
		OFFSET -5.308129 -1.633274 1.361059 
		CHANNELS 3 Xrotation Zrotation Yrotation
		JOINT rShin
		{
			OFFSET 2.041588 -20.007561 0.000000 
			CHANNELS 3 Xrotation Zrotation Yrotation
			JOINT rFoot
			{
				OFFSET 0.000000 -19.190928 -1.224953 
				CHANNELS 3 Xrotation Yrotation Zrotation
				End Site
				{
					OFFSET 0.000000 -2.449906 4.627600 
				}
			}
		}
	}
}
MOTION
Frames: 10
Frame Time: 0.033333
-7.095121 48.610977 85.412239 -5.630170 1.818254 -150.931061 0.000000 0.000000 0.000000 1.357629 0.192508 -0.557670 4.896187 -1.003096 4.248591 7.371295 4.476394 2.977978 -5.271830 -4.833187 1.669102 -64.623108 4.669652 4.976907 -46.164295 -2.482838 30.959358 -2.487621 6.472697 -3.610208 8.483261 11.806838 0.926462 62.097553 -24.498787 2.618036 44.680908 4.984651 22.451946 -12.949171 -10.018291 -2.852173 -11.028030 1.560716 4.367508 6.069474 -4.035363 24.962187 -1.799761 0.105552 1.260754 5.252494 -5.594576 -6.765604 2.255351 2.297478 -24.086668 -9.231557 -0.691693 8.182237 
-6.277308 48.529781 85.528931 -5.554437 1.177056 -149.416534 0.000000 0.000000 0.000000 1.778321 0.110958 -1.109096 5.025450 -1.208783 3.418649 7.241767 4.350849 2.644673 -5.994390 -4.853776 2.027463 -63.758770 1.447014 5.406688 -46.181252 -2.576029 30.667027 -1.813105 6.288121 -3.586648 7.868358 11.792133 1.312923 62.522980 -23.621536 3.044814 45.666107 4.993441 22.829390 -13.176623 -8.473277 -2.993315 -11.282679 1.687779 4.387284 5.818691 -4.256848 24.962519 -0.738693 0.097771 1.723464 5.805263 -5.455275 -6.946209 2.226395 2.253583 -25.006849 -10.175286 -0.708680 7.859844 
-5.510895 48.470383 85.572739 -5.268427 0.149226 -148.095566 0.000000 0.000000 0.000000 2.296384 -0.135627 -1.331055 5.197656 -1.268285 2.539521 7.373230 3.903500 2.154088 -6.368349 -5.094226 2.473990 -63.024609 -1.876310 5.753435 -46.154839 -2.589211 30.524740 -1.452312 6.603428 -3.581463 7.600519 11.930214 1.797621 62.567642 -22.581451 3.282451 46.133240 4.995092 22.561890 -13.768019 -8.408768 -2.970887 -11.637259 1.503190 4.160057 6.677399 -4.092215 24.972462 0.447727 0.120702 1.797299 6.228725 -5.643831 -7.523366 2.548365 2.604227 -24.973255 -10.770836 -0.682227 7.105589 
-4.672073 48.441071 85.642303 -5.010557 -0.415753 -146.590805 0.000000 0.000000 0.000000 2.589732 -0.170691 -1.494501 5.224114 -0.976108 1.748292 7.803215 3.611672 1.712971 -6.671184 -5.050958 2.734965 -63.096878 -5.149598 5.558808 -45.620335 -2.490018 30.839762 -1.194461 6.521159 -3.579986 7.606340 12.563411 2.000974 61.905575 -21.572281 3.884875 46.017387 4.990459 22.294540 -14.814300 -8.666727 -2.901797 -11.950959 1.562247 3.824523 6.647933 -3.700979 24.974277 1.603581 0.140788 2.097804 5.299464 -5.436350 -7.783375 4.470194 3.202562 -25.000418 -11.663324 -0.630331 6.376821 
-3.766213 48.385937 85.757599 -5.030354 0.415527 -144.911041 0.000000 0.000000 0.000000 2.150600 0.605408 -1.793345 4.563861 -0.371038 0.996073 8.482640 3.407391 1.252433 -6.967382 -4.439451 2.420341 -64.311447 -7.691170 4.583375 -45.403648 -1.966771 32.075089 -0.944732 5.675639 -3.542686 7.656694 13.593953 1.460370 60.535835 -20.891243 4.866497 46.366444 4.993618 22.022806 -14.908396 -9.418569 -2.800763 -13.690045 2.567999 3.672558 7.356934 -3.206015 24.978981 2.333525 0.105308 2.110358 3.275525 -4.133791 -7.038520 6.394889 3.784967 -24.998480 -12.571681 -0.652376 5.628618 
-2.991366 48.384853 85.813850 -5.167932 0.555449 -144.343750 0.000000 0.000000 0.000000 1.758472 0.901369 -1.360243 3.943430 -0.126939 0.849607 9.039071 3.027011 0.851002 -6.693477 -4.337017 2.071480 -65.227592 -9.366688 5.160505 -45.930809 -1.959856 30.576012 -0.109412 5.873596 -3.537315 8.300594 13.742519 1.033908 59.423111 -19.999096 6.052098 45.719017 4.993411 22.622820 -12.629796 -10.112232 -2.860794 -14.800293 2.977431 3.328704 7.775305 -2.728653 24.988157 3.629536 0.200832 1.895667 1.891691 -3.472459 -6.554814 7.417152 3.985275 -25.009655 -12.965525 -0.572602 4.922162 
-2.309157 48.429195 85.857475 -5.273292 0.514890 -144.207230 0.000000 0.000000 0.000000 1.425231 1.046762 -0.756164 3.283993 0.156226 1.005882 9.791183 2.675659 0.547646 -6.106753 -4.078767 1.781293 -67.003105 -10.517376 5.392649 -46.248562 -1.816829 29.474039 0.460010 5.507773 -3.522772 9.291071 14.133343 0.624424 57.710411 -19.533381 7.236976 45.471138 4.990119 23.339926 -12.799398 -10.065723 -2.854640 -15.133075 3.407446 2.973277 7.582872 -2.262944 24.968744 4.691852 0.135291 1.608320 1.246636 -2.755768 -5.923975 7.225476 3.864947 -25.011480 -12.677588 -0.433260 4.128704 
-1.716955 48.482845 85.913239 -5.431767 0.174827 -144.462692 0.000000 0.000000 0.000000 1.171080 0.999412 0.091900 2.702652 0.292877 1.435578 10.294985 2.558567 0.264281 -5.560735 -3.948782 1.529629 -68.451332 -10.939333 6.201875 -46.646206 -1.912854 28.410412 1.631781 4.739536 -3.496550 10.235353 14.134997 0.354525 56.519936 -18.981056 7.880126 44.982380 4.990180 24.433310 -13.666429 -10.358441 -2.777592 -14.951443 3.867434 2.437644 7.472666 -1.869235 24.977743 6.363132 0.180734 0.763075 0.671775 -2.287532 -5.277070 7.076528 3.402124 -24.997778 -12.342484 -0.378401 3.510585 
-1.183334 48.514606 86.037903 -5.785974 -0.103807 -144.853470 0.000000 0.000000 0.000000 0.790912 0.947999 0.793210 2.105537 0.448945 2.002045 10.509237 2.050751 0.312999 -5.121530 -3.669820 1.169736 -69.787399 -10.672242 7.185099 -46.817860 -1.999321 28.444294 2.118796 3.996792 -3.489020 10.996094 14.111328 -0.002381 55.444233 -18.468893 7.821466 45.386349 4.989569 23.644835 -14.098987 -11.008731 -2.673496 -14.950544 4.482449 1.821589 7.933452 -1.500792 24.973948 8.035278 0.014476 -0.677265 -0.556133 -1.882590 -4.605921 7.641053 2.815717 -25.021183 -12.106124 -0.318881 3.244786 
-0.717449 48.556416 86.147598 -6.054994 -0.280283 -145.087418 0.000000 0.000000 0.000000 0.400951 0.965312 1.184103 1.598124 0.585367 2.529464 10.427619 1.796790 0.556979 -4.913017 -3.390909 0.818726 -70.671143 -9.871953 8.239305 -46.762478 -2.181786 29.225969 2.240435 3.309340 -3.490553 11.523618 14.297291 -0.397489 54.373859 -18.096415 6.869918 46.261620 4.991779 22.209677 -13.869293 -10.685408 -2.718092 -13.918464 5.153379 1.358225 7.125590 -1.169754 24.946886 8.471774 -0.078951 -2.410782 -1.285315 -1.459929 -3.993587 7.401669 2.432605 -25.029112 -11.638117 -0.291918 2.678616 
